<?xml version="1.0" encoding="utf-8"?>
<!-- Generator: Adobe Illustrator 24.0.1, SVG Export Plug-In . SVG Version: 6.00 Build 0)  -->
<svg version="1.1" xmlns="http://www.w3.org/2000/svg" xmlns:xlink="http://www.w3.org/1999/xlink" x="0px" y="0px"
	 viewBox="0 0 1000 1000" style="enable-background:new 0 0 1000 1000;" xml:space="preserve">
<style type="text/css">
	.st0{opacity:0.15;fill:#577399;}
	.st1{fill:#F97171;}
	.st2{fill:none;}
	.st3{fill:#FFE2D9;}
	.st4{fill:#F99192;}
	.st5{fill:#3A3144;}
	.st6{fill:#FFECE5;}
	.st7{fill:none;stroke:#1CA591;stroke-width:50;stroke-miterlimit:10;}
	.st8{fill:#71D2C1;}
	.st9{fill:none;stroke:#71D2C1;stroke-width:40;stroke-miterlimit:10;}
	.st10{fill:none;stroke:#3E83D6;stroke-width:80;stroke-miterlimit:10;}
	.st11{fill:none;stroke:#4F8AE0;stroke-width:80;stroke-miterlimit:10;}
	.st12{fill:#4F8AE0;}
	.st13{fill:#3E83D6;}
	.st14{fill:none;stroke:#71D2C1;stroke-width:32;stroke-miterlimit:10;}
	.st15{fill:#3EB7B2;}
	.st16{fill:none;stroke:#3EB7B2;stroke-width:50;stroke-miterlimit:10;}
	.st17{fill:none;stroke:#71D2C1;stroke-width:6;stroke-linecap:round;stroke-miterlimit:10;}
	.st18{fill:#FFD8C5;}
</style>
<g id="Camada_2">
	<circle class="st0" cx="223.5" cy="563.2" r="417.1"/>
</g>
<g id="Layer_1">
	<g>
		<path class="st1" d="M671.8,351.1c-0.9,0-1.7,0-2.6,0C670.1,351.1,670.9,351.1,671.8,351.1z"/>
		<path class="st1" d="M674.3,351.1c-0.9,0-1.7,0-2.6,0C672.6,351.1,673.5,351.1,674.3,351.1z"/>
		<g>
			<path class="st2" d="M689.7,270.4c11.9-6.4,20-19,20-33.4c0-20.9-17-37.9-37.9-37.9s-37.9,17-37.9,37.9c0,14.5,8.1,27,20,33.4
				c-35.6,4.2-62.1,20.4-62.1,39.8c0,0,0,0,0,0c0,22.1,34.5,40.2,77.5,40.8c0.9,0,1.7,0,2.6,0s1.7,0,2.6,0
				c43-0.7,77.5-18.7,77.5-40.8c0,0,0,0,0,0C751.8,290.8,725.2,274.5,689.7,270.4z"/>
			<path class="st3" d="M817.8,61.5H788c42.5,0,76.9,34.4,76.9,76.9v479.2c0,42.5-34.4,76.9-76.9,76.9h29.8
				c39.7,0,71.9-32.2,71.9-71.9V133.4C889.7,93.7,857.5,61.5,817.8,61.5z"/>
			<path class="st1" d="M673,149.1c-58.3,0-105.5,47.3-105.5,105.5c0,23.1,7.4,44.5,20,61.9c0-20.8,28.4-38.1,66.4-42.6
				c-12.7-6.8-21.4-20.3-21.4-35.7c0-22.4,18.1-40.5,40.5-40.5s40.5,18.1,40.5,40.5c0,15.5-8.7,28.9-21.4,35.7
				c38,4.4,66.4,21.8,66.4,42.6c12.6-17.4,20-38.8,20-61.9C778.5,196.3,731.3,149.1,673,149.1z"/>
		</g>
		<path class="st2" d="M671.8,153.5c-54.6,0-98.8,44.2-98.8,98.8c0,21.6,7,41.6,18.7,57.9c17.5,24.1,45.6,40,77.5,40.8
			c0.9,0,1.7,0,2.6,0s1.7,0,2.6,0c43-0.7,77.5-18.7,77.5-40.8c0,0,0,0,0,0c11.8-16.3,18.7-36.3,18.7-57.9
			C770.5,197.8,726.3,153.5,671.8,153.5z"/>
	</g>
	<path class="st4" d="M315.6,890.1v54.7c0,2.2,1.8,4,4,4l0,0h73.3c1.9,0,3.6-1.2,4.2-3c1.2-3.9,1.8-10.6-7.3-13.4
		c-13.2-4.2-29-21.5-20.9-53.4"/>
	<path class="st1" d="M368.6,909.5c-2.4-7.7-2.9-17.4-0.1-29.1l-34.1,5.7l-18.9,3.9v19.4L368.6,909.5z"/>
	<path class="st1" d="M319.6,948.9h73.2c1.9,0,3.6-1.2,4.2-3.1c0.5-1.4,0.7-2.9,0.7-4.4h-82.1v3.5
		C315.6,947.1,317.4,948.9,319.6,948.9z"/>
	<path class="st5" d="M368.2,917.9c1.9-1.3,3.7-2.8,5.3-4.5c0.9-1.1-0.6-2.5-1.5-1.5c-1.4,1.6-3.1,3-4.8,4.2
		C366,916.8,367.1,918.7,368.2,917.9L368.2,917.9z"/>
	<path class="st5" d="M371.5,924.8c2.6-1.2,4.8-3.1,6.4-5.5c0.8-1.1-1.1-2.2-1.8-1.1c-1.4,2.1-3.3,3.7-5.6,4.8
		C369.2,923.5,370.3,925.4,371.5,924.8L371.5,924.8z"/>
	<path class="st5" d="M376.7,930.4c2.5-1.4,4.5-3.5,5.8-6c0.7-1.2-1.2-2.3-1.8-1.1c-1.2,2.2-2.9,4-5.1,5.2c-0.5,0.3-0.6,1-0.2,1.5
		C375.7,930.4,376.3,930.6,376.7,930.4L376.7,930.4z"/>
	<path class="st5" d="M383.6,934.7c1.5-1.5,2.7-3.2,3.6-5.1c0.6-1.2-1.3-2.3-1.8-1.1c-0.8,1.7-1.9,3.3-3.3,4.7
		C381.1,934.2,382.6,935.7,383.6,934.7L383.6,934.7z"/>
	<path class="st4" d="M550.9,879.4l14.1,52.8c0.6,2.1,2.8,3.4,4.9,2.9c0,0,0,0,0,0l70.8-18.9c1.8-0.5,3.2-2.1,3.3-4
		c0.2-4.1-1.1-10.7-10.5-11.1c-13.9-0.6-33.6-13.3-34-46.2"/>
	<path class="st1" d="M607.2,884.4c-4.3-6.9-7.3-16.1-7.6-28.1l-31.4,14.3l-17.2,8.7l5,18.7L607.2,884.4z"/>
	<path class="st1" d="M569.9,935l70.8-18.9c1.9-0.5,3.2-2.1,3.3-4.1c0.1-1.5-0.1-3-0.5-4.4l-79.3,21.2l0.9,3.3
		C565.6,934.3,567.8,935.6,569.9,935C569.9,935,569.9,935,569.9,935z"/>
	<path class="st5" d="M608.9,892.6c1.5-1.7,2.8-3.7,3.9-5.7c0.6-1.2-1.2-2.3-1.8-1.1c-1,1.9-2.2,3.7-3.6,5.3
		C606.5,892.2,608,893.7,608.9,892.6L608.9,892.6z"/>
	<path class="st5" d="M613.9,898.4c2.2-1.9,3.8-4.3,4.7-7c0.5-1.3-1.6-1.9-2.1-0.6c-0.8,2.3-2.3,4.4-4.2,6
		C611.3,897.8,612.8,899.3,613.9,898.4L613.9,898.4z"/>
	<path class="st5" d="M620.4,902.4c2-2,3.4-4.5,4.1-7.3c0.3-1.3-1.7-1.9-2.1-0.6c-0.6,2.4-1.8,4.6-3.5,6.4c-0.4,0.4-0.3,1.1,0.1,1.5
		C619.4,902.8,620,902.8,620.4,902.4L620.4,902.4z"/>
	<path class="st5" d="M628.1,904.9c1.1-1.8,1.8-3.8,2.1-5.9c0.2-1.3-1.8-1.9-2-0.6c-0.3,1.9-1,3.7-2,5.3c-0.3,0.5-0.1,1.2,0.5,1.4
		C627.1,905.5,627.7,905.3,628.1,904.9L628.1,904.9z"/>
	<path class="st6" d="M790.3,61.8H573h-19.7c-42.5,0-76.9,34.4-76.9,76.9v479.2c0,42.5,34.4,76.9,76.9,76.9H573h217.3
		c42.5,0,76.9-34.4,76.9-76.9V138.7C867.2,96.2,832.7,61.8,790.3,61.8z M671.8,153.5c54.6,0,98.8,44.2,98.8,98.8
		c0,21.6-7,41.6-18.7,57.9c-17.5,24.1-45.6,40-77.5,40.8c-0.9,0-1.7,0-2.6,0s-1.7,0-2.6,0c-31.9-0.8-60-16.7-77.5-40.8
		C580,293.9,573,273.9,573,252.3C573,197.8,617.2,153.5,671.8,153.5z M773.3,558.1c0,8.7-7.1,15.8-15.8,15.8H586
		c-8.7,0-15.8-7.1-15.8-15.8v-11.5c0-8.7,7.1-15.8,15.8-15.8h171.5c8.7,0,15.8,7.1,15.8,15.8V558.1z M773.3,479.2
		c0,8.7-7.1,15.8-15.8,15.8H586c-8.7,0-15.8-7.1-15.8-15.8v-11.5c0-8.7,7.1-15.8,15.8-15.8h171.5c8.7,0,15.8,7.1,15.8,15.8V479.2z"
		/>
	<path class="st7" d="M309.4,330.1c0,0-81.7,60.2-81.7,99.7s91.6,90.8,91.6,90.8"/>
	<path class="st8" d="M562.4,282.1c-5.6,12.8-10,26.2-12.9,40c-1.1,5.3,7.1,7.6,8.2,2.3c2.7-13,6.7-25.7,12-37.9
		c0.9-2.1,0.6-4.6-1.5-5.8C566.5,279.5,563.4,280,562.4,282.1z"/>
	<path class="st8" d="M549,313l32.8,19.3c0,0,22.5-31.4,2.9-41.4S549,313,549,313z"/>
	<path class="st9" d="M577.3,309.2c0,0-14.9,10.8-26,46.2"/>
	<path class="st10" d="M330.3,451.9c0,0,18.1,131.1,17.6,215.8s-1.6,230.6-1.6,230.6"/>
	<path class="st11" d="M344.9,446.8c0,0,129.9,150.7,153.7,208c23.8,57.3,80.1,224.1,80.1,224.1"/>
	<circle class="st12" cx="347.9" cy="425.7" r="61"/>
	<polyline class="st13" points="408.9,434.5 290.4,475.7 281,409 	"/>
	<path class="st14" d="M375.1,277.9c-7,10.5-7.2,28.5-12.5,52.2"/>
	<path class="st8" d="M385.9,300.3L385.9,300.3c-19,2.2-36.1-11.4-38.4-30.4l0,0l-0.8-6.9c-1.7-14.2,8.5-27.1,22.8-28.8l0,0l0,0
		c14.2-1.7,27.1,8.5,28.8,22.8l2.8,24C402.3,290.6,395.5,299.2,385.9,300.3z"/>
	<path class="st8" d="M402.3,273.9c0,2.7-2.8,6.4-6.1,5.8l0.6-7.5c0-0.5,2.6-1,3-1c1.4,0,2.5,1.1,2.5,2.5
		C402.3,273.8,402.3,273.9,402.3,273.9z"/>
	<path class="st15" d="M280.4,332.6l-2.1,84.8c-0.1,4.2,3.1,7.8,7.4,8.1l125.1,9.1c3.6,0.3,6.9-1.9,8.1-5.3l26.7-78.3
		c4.8-14.1-2.8-29.4-16.9-34.2c-1.9-0.6-3.9-1.1-5.9-1.3L313,304c-16.2-1.7-30.8,10.1-32.4,26.3
		C280.5,331.1,280.4,331.8,280.4,332.6z"/>
	<path class="st5" d="M372.2,474.4c6.4-6.2,12.3-12.9,17.8-19.9c0.8-1.1-1-2.1-1.8-1.1c-5.3,6.9-11.1,13.4-17.4,19.5
		C369.7,473.8,371.2,475.4,372.2,474.4L372.2,474.4z"/>
	<path class="st5" d="M400.7,277.9c0,0-3-0.5-8.5,5.9c-2.7,3.2-5.6-7.3-5.1-16.9c0.1-1.5,0.6-2.9,1.5-4c0.8-1,1.5-2.1,2-3.3
		c0.8-1.9,2.4-3.3,4.3-4c4.9-1.8,12.7-5.9,5.8-12.6c-9.3-9.1-36.3-16.8-47.6-1.2c-0.6,0.8-1.3,1.4-2.1,1.9
		c-5.2,2.9-8.5,8.4-8.4,14.4c0,8,4.8,23.1,7.4,30.9c1,2.9,3.8,4.9,6.9,4.9h6.9c2.3,0,4.5-1.1,5.9-3l3.7-5.1
		c2.4-3.3,3.2-7.5,2.4-11.5c-0.5-2.4-0.5-5,1.2-6.4c3.7-3.1,6,6.1,6.7,13.6c0.7,7.5-2.8,19.7,2.7,24
		C395.2,312.6,409.4,305.9,400.7,277.9z"/>
	<path class="st16" d="M416.7,340.5c0,0,87.8,59.3,97.4,55.8c9.6-3.5,56.7-82.8,56.7-82.8"/>
	<path class="st17" d="M588.1,274.7c0,0-8.1,1.6-16.5,19"/>
	<path class="st17" d="M590.3,288.9c0,0-8-2.8-12.8,6.6"/>
	<path class="st17" d="M595.4,296.9c0,0-8-2.8-12.8,6.6"/>
	<path class="st17" d="M596.7,306.1c0,0-8-2.8-12.8,6.6"/>
	<path class="st5" d="M421.9,375.7c3.8,1.9,7.3,4.2,10.5,6.8c1.1,0.9,2.6-0.6,1.5-1.5c-3.3-2.8-7-5.2-10.9-7.2
		C421.7,373.3,420.7,375.1,421.9,375.7L421.9,375.7z"/>
	<path class="st5" d="M508.7,367.4l5.9,3.2c1.2,0.7,2.3-1.2,1.1-1.8l-5.9-3.2C508.6,364.9,507.5,366.8,508.7,367.4z"/>
	<rect x="592.9" y="388.8" class="st18" width="157.8" height="2.6"/>
	<rect x="592.9" y="401.2" class="st18" width="157.8" height="2.6"/>
	<rect x="592.9" y="413.6" class="st18" width="95.7" height="2.6"/>
	<circle class="st1" cx="597.6" cy="473.5" r="4.9"/>
	<circle class="st1" cx="620.3" cy="473.5" r="4.9"/>
	<circle class="st1" cx="642.9" cy="473.5" r="4.9"/>
	<circle class="st1" cx="665.6" cy="473.5" r="4.9"/>
	<circle class="st1" cx="688.3" cy="473.5" r="4.9"/>
	<circle class="st1" cx="597.6" cy="552.3" r="4.9"/>
	<circle class="st1" cx="620.3" cy="552.3" r="4.9"/>
	<circle class="st1" cx="642.9" cy="552.3" r="4.9"/>
	<circle class="st1" cx="665.6" cy="552.3" r="4.9"/>
	<circle class="st1" cx="688.3" cy="552.3" r="4.9"/>
</g>
</svg>
