<svg xmlns="http://www.w3.org/2000/svg" viewBox="0 0 1187.62 1251.63"><defs><style>.cls-1,.cls-4{fill:#577399;}.cls-2{fill:#fe5f55;}.cls-3{fill:#c1d8eb;}.cls-4{font-size:392.48px;font-family:Quicksand-Bold, Quicksand;font-weight:700;letter-spacing:-0.03em;}.cls-5{letter-spacing:-0.05em;}.cls-6{fill:#495867;}</style></defs><title>Ativo 1</title><g id="Camada_2" data-name="Camada 2"><g id="Camada_1-2" data-name="Camada 1"><g id="logo_symbol" data-name="logo symbol"><path class="cls-1" d="M583.88,811.26c-223.66,0-405.63-182-405.63-405.63S360.22,0,583.88,0a48.39,48.39,0,0,1,0,96.78C413.57,96.78,275,235.33,275,405.63S413.57,714.48,583.88,714.48a308.94,308.94,0,0,0,149.88-38.73,48.39,48.39,0,1,1,47.06,84.57A405.91,405.91,0,0,1,583.88,811.26Z"/><path class="cls-2" d="M568.55,509.32a48.22,48.22,0,0,1-34.21-14.17l-71.08-71.07a48.39,48.39,0,0,1,68.43-68.43l36.86,36.86,111-83A48.39,48.39,0,0,1,748,378L602.76,495.16A48.25,48.25,0,0,1,568.55,509.32Z"/><path class="cls-3" d="M981.72,433.29H896.94a27.66,27.66,0,0,1,0-55.31h84.78a27.66,27.66,0,0,1,0,55.31Z"/><path class="cls-3" d="M856.3,275a27.65,27.65,0,0,1-13.93-51.55l73.3-42.59a27.65,27.65,0,1,1,27.79,47.82l-73.3,42.58A27.5,27.5,0,0,1,856.3,275Z"/><path class="cls-3" d="M741,161.1A27.65,27.65,0,0,1,717,119.62l42.38-73.44a27.65,27.65,0,1,1,47.9,27.65l-42.37,73.44A27.64,27.64,0,0,1,741,161.1Z"/><path class="cls-3" d="M938.32,634.13a27.61,27.61,0,0,1-13.86-3.74l-73.3-42.58A27.65,27.65,0,0,1,879,540l73.3,42.57a27.66,27.66,0,0,1-13.93,51.57Z"/></g><text class="cls-4" transform="translate(0 1164.89)">i<tspan class="cls-5" x="82.81" y="0">n</tspan><tspan class="cls-6" x="295.14" y="0">Time</tspan></text></g></g></svg>