<svg id="Camada_1" data-name="Camada 1" xmlns="http://www.w3.org/2000/svg" viewBox="0 0 1155.45 1168.81"><defs><style>.cls-1{fill:#577399;}.cls-2{fill:#fe5f55;}.cls-3{fill:#c1d8eb;}.cls-4{isolation:isolate;}.cls-5{fill:#495867;}</style></defs><title>logo</title><g id="Camada_2" data-name="Camada 2"><g id="Camada_1-2" data-name="Camada 1-2"><g id="logo_symbol" data-name="logo symbol"><path class="cls-1" d="M583.88,811.26c-223.66,0-405.63-182-405.63-405.63S360.22,0,583.88,0a48.39,48.39,0,0,1,0,96.78C413.57,96.78,275,235.33,275,405.63S413.57,714.48,583.88,714.48a308.92,308.92,0,0,0,149.88-38.73,48.39,48.39,0,1,1,47.06,84.57A405.93,405.93,0,0,1,583.88,811.26Z" transform="translate(-21.59)"/><path class="cls-2" d="M568.55,509.32a48.2,48.2,0,0,1-34.21-14.17l-71.08-71.07a48.39,48.39,0,0,1,68.43-68.43l36.86,36.86,111-83A48.42,48.42,0,0,1,748,378L602.76,495.16A48.25,48.25,0,0,1,568.55,509.32Z" transform="translate(-21.59)"/><path class="cls-3" d="M981.72,433.29H896.94a27.66,27.66,0,0,1,0-55.31h84.78a27.66,27.66,0,0,1,0,55.31Z" transform="translate(-21.59)"/><path class="cls-3" d="M856.3,275a27.65,27.65,0,0,1-13.93-51.55l73.3-42.59a27.65,27.65,0,0,1,27.79,47.82h0l-73.3,42.58A27.55,27.55,0,0,1,856.3,275Z" transform="translate(-21.59)"/><path class="cls-3" d="M741,161.1a27.65,27.65,0,0,1-24-41.48l42.38-73.44a27.65,27.65,0,1,1,47.9,27.65l-42.37,73.44A27.63,27.63,0,0,1,741,161.1Z" transform="translate(-21.59)"/><path class="cls-3" d="M938.32,634.13a27.55,27.55,0,0,1-13.86-3.74l-73.3-42.58A27.66,27.66,0,0,1,879,540l73.3,42.57a27.66,27.66,0,0,1-13.93,51.57Z" transform="translate(-21.59)"/></g><g class="cls-4"><g class="cls-4"><path class="cls-1" d="M45.92,929.4q-13.35,0-18.84-4.32t-5.49-15.3v-7.46q0-11.39,6.08-15.5t18.64-4.12q13.74,0,19.23,4.31T71,902.32v7.46q0,11.38-5.89,15.5T45.92,929.4ZM69.86,1141A23.49,23.49,0,0,1,63.19,1158a22.54,22.54,0,0,1-16.88,6.87A22.51,22.51,0,0,1,29.44,1158,23.46,23.46,0,0,1,22.76,1141V978.85a23.49,23.49,0,0,1,6.68-17.07,22.54,22.54,0,0,1,16.87-6.87,22.58,22.58,0,0,1,16.88,6.87,23.53,23.53,0,0,1,6.67,17.07Z" transform="translate(-21.59)"/></g><g class="cls-4"><path class="cls-1" d="M220.57,951q29,0,44.15,12.17t20.81,32.37q5.69,20.22,5.69,44.94V1141a23.5,23.5,0,0,1-6.68,17.07,24.16,24.16,0,0,1-33.75,0,23.49,23.49,0,0,1-6.67-17.07V1040.47a76.42,76.42,0,0,0-3.34-23.35,32.3,32.3,0,0,0-12-16.68q-8.64-6.27-24.72-6.28-15.71,0-26.5,6.28a42.92,42.92,0,0,0-16.48,16.68,47.79,47.79,0,0,0-5.69,23.35V1141a23.53,23.53,0,0,1-6.67,17.07,22.56,22.56,0,0,1-16.88,6.87A22.53,22.53,0,0,1,115,1158a23.49,23.49,0,0,1-6.67-17.07V978.85A23.53,23.53,0,0,1,115,961.78a24.17,24.17,0,0,1,33.76,0,23.57,23.57,0,0,1,6.67,17.07v16.88l-5.89-1.18a77.53,77.53,0,0,1,10.21-14.32,97.27,97.27,0,0,1,15.7-14.33,79.9,79.9,0,0,1,20.4-10.79A72.06,72.06,0,0,1,220.57,951Z" transform="translate(-21.59)"/></g><g class="cls-4"><path class="cls-5" d="M330.86,935.29q-10.22,0-17.08-6.28t-6.87-16.48q0-10.21,6.87-16.29t17.08-6.09H505.12a24.38,24.38,0,0,1,17.07,6.28q6.85,6.29,6.87,16.49t-6.87,16.29q-6.87,6.07-17.07,6.08Zm86.73,229.6q-11,0-18-6.87a22.81,22.81,0,0,1-7.06-17.07V913.31h51V1141a22.52,22.52,0,0,1-7.26,17.07Q429,1164.89,417.59,1164.89Z" transform="translate(-21.59)"/><path class="cls-5" d="M575.37,929.4q-13.35,0-18.84-4.32t-5.5-15.3v-7.46q0-11.39,6.09-15.5t18.64-4.12q13.74,0,19.23,4.31t5.5,15.31v7.46q0,11.38-5.89,15.5T575.37,929.4ZM599.31,1141a23.53,23.53,0,0,1-6.67,17.07,24.17,24.17,0,0,1-33.76,0,23.49,23.49,0,0,1-6.67-17.07V978.85a23.53,23.53,0,0,1,6.67-17.07,24.17,24.17,0,0,1,33.76,0,23.57,23.57,0,0,1,6.67,17.07Z" transform="translate(-21.59)"/><path class="cls-5" d="M746.49,951q31.39,0,46.31,15.11t19.62,39l-6.67-3.53,3.14-6.28q4.71-9,14.52-19.43a88.57,88.57,0,0,1,23.75-17.66,66.44,66.44,0,0,1,31.2-7.26q28.26,0,43,12.17t20.21,32.37q5.49,20.22,5.49,44.94V1141a23.49,23.49,0,0,1-6.67,17.07,24.16,24.16,0,0,1-33.75,0A23.49,23.49,0,0,1,900,1141V1040.47a80.84,80.84,0,0,0-3.14-23.35,32.05,32.05,0,0,0-11.39-16.68q-8.24-6.27-23.54-6.28-14.93,0-25.52,6.28a40.62,40.62,0,0,0-15.89,16.68,50.75,50.75,0,0,0-5.3,23.35V1141A23.53,23.53,0,0,1,808.5,1158a24.17,24.17,0,0,1-33.76,0,23.49,23.49,0,0,1-6.67-17.07V1040.47a80.84,80.84,0,0,0-3.14-23.35,32.09,32.09,0,0,0-11.38-16.68q-8.24-6.27-23.55-6.28-14.93,0-25.51,6.28a40.71,40.71,0,0,0-15.9,16.68,50.75,50.75,0,0,0-5.29,23.35V1141a23.5,23.5,0,0,1-6.68,17.07,24.16,24.16,0,0,1-33.75,0A23.49,23.49,0,0,1,636.2,1141V978.85a23.53,23.53,0,0,1,6.67-17.07,24.16,24.16,0,0,1,33.75,0,23.53,23.53,0,0,1,6.68,17.07v16.88l-5.89-1.18a87.52,87.52,0,0,1,9.81-14.32,84.87,84.87,0,0,1,15.31-14.33,82.06,82.06,0,0,1,20-10.79A67.64,67.64,0,0,1,746.49,951Z" transform="translate(-21.59)"/><path class="cls-5" d="M1085.59,1168.81q-33.37,0-57.89-13.93A96.08,96.08,0,0,1,990,1117q-13.15-23.94-13.15-54.17,0-35.31,14.33-60.24t37.48-38.27A96.78,96.78,0,0,1,1077.74,951a89.39,89.39,0,0,1,37.87,8.24,103.58,103.58,0,0,1,31.6,22.57A109.93,109.93,0,0,1,1169,1015a101,101,0,0,1,8,40,20.16,20.16,0,0,1-7.46,15.3,25,25,0,0,1-16.49,5.89H1003.17l-11.78-39.25h144l-8.63,7.85v-10.6a35.85,35.85,0,0,0-8-20.4,52.54,52.54,0,0,0-18-14.33,51.5,51.5,0,0,0-23-5.3,74.47,74.47,0,0,0-22,3.14,42.07,42.07,0,0,0-17.66,10.6q-7.47,7.46-11.78,20t-4.31,31.8q0,21.18,8.83,35.91a60.33,60.33,0,0,0,52.39,30q14.52,0,23.16-2.35a52.22,52.22,0,0,0,13.93-5.69c3.53-2.22,6.74-4.13,9.62-5.69a29.86,29.86,0,0,1,13.34-3.54,19.77,19.77,0,0,1,20,19.63q0,10.59-11,19.23-10.21,8.64-28.65,15.11A114.06,114.06,0,0,1,1085.59,1168.81Z" transform="translate(-21.59)"/></g></g></g></g></svg>