<svg xmlns="http://www.w3.org/2000/svg" viewBox="0 0 830.6 811.26"><defs><style>.cls-1{fill:#577399;}.cls-2{fill:#fe5f55;}.cls-3{fill:#c1d8eb;}</style></defs><title>Ativo 1</title><g id="Camada_2" data-name="Camada 2"><g id="Camada_1-2" data-name="Camada 1"><g id="Camada_2-2" data-name="Camada 2"><g id="Camada_1-2-2" data-name="Camada 1-2"><g id="logo_symbol" data-name="logo symbol"><path class="cls-1" d="M405.63,811.26C182,811.26,0,629.26,0,405.63S182,0,405.63,0a48.39,48.39,0,0,1,0,96.78c-170.31,0-308.88,138.55-308.88,308.85S235.32,714.48,405.63,714.48a308.92,308.92,0,0,0,149.88-38.73,48.39,48.39,0,1,1,47.06,84.57A405.93,405.93,0,0,1,405.63,811.26Z"/><path class="cls-2" d="M390.3,509.32a48.2,48.2,0,0,1-34.21-14.17L285,424.08a48.39,48.39,0,0,1,68.43-68.43l36.86,36.86,111-83A48.42,48.42,0,1,1,569.75,378L424.51,495.16A48.25,48.25,0,0,1,390.3,509.32Z"/><path class="cls-3" d="M803.47,433.29H718.69a27.66,27.66,0,0,1,0-55.31h84.78a27.66,27.66,0,0,1,0,55.31Z"/><path class="cls-3" d="M678.05,275a27.65,27.65,0,0,1-13.93-51.55l73.3-42.59a27.65,27.65,0,0,1,27.79,47.82h0l-73.3,42.58A27.55,27.55,0,0,1,678.05,275Z"/><path class="cls-3" d="M562.75,161.1a27.65,27.65,0,0,1-24-41.48l42.38-73.44A27.65,27.65,0,1,1,629,73.83l-42.37,73.44A27.63,27.63,0,0,1,562.75,161.1Z"/><path class="cls-3" d="M760.07,634.13a27.55,27.55,0,0,1-13.86-3.74l-73.3-42.58A27.66,27.66,0,0,1,700.75,540l73.3,42.57a27.66,27.66,0,0,1-13.93,51.57Z"/></g></g></g></g></g></svg>